<svg width="88" height="88" viewBox="0 0 88 88" fill="none" xmlns="http://www.w3.org/2000/svg">
<path fill-rule="evenodd" clip-rule="evenodd" d="M43.9996 61.1121C44.3237 61.1121 44.6346 60.9833 44.8638 60.7541C45.093 60.5249 45.2218 60.214 45.2218 59.8899V31.0625L52.912 38.7552C53.1415 38.9847 53.4528 39.1136 53.7774 39.1136C54.1019 39.1136 54.4132 38.9847 54.6427 38.7552C54.8722 38.5257 55.0011 38.2144 55.0011 37.8899C55.0011 37.5653 54.8722 37.254 54.6427 37.0245L44.8649 27.2468C44.7514 27.1329 44.6165 27.0426 44.468 26.981C44.3195 26.9194 44.1604 26.8877 43.9996 26.8877C43.8388 26.8877 43.6796 26.9194 43.5312 26.981C43.3827 27.0426 43.2478 27.1329 43.1343 27.2468L33.3565 37.0245C33.2428 37.1382 33.1527 37.2731 33.0912 37.4216C33.0297 37.57 32.998 37.7292 32.998 37.8899C32.998 38.2144 33.127 38.5257 33.3565 38.7552C33.586 38.9847 33.8972 39.1136 34.2218 39.1136C34.5464 39.1136 34.8576 38.9847 35.0871 38.7552L42.7774 31.0625V59.8899C42.7774 60.214 42.9061 60.5249 43.1354 60.7541C43.3646 60.9833 43.6754 61.1121 43.9996 61.1121Z" fill="white"/>
<circle cx="44" cy="44" r="43.1852" stroke="white" stroke-width="1.62963"/>
</svg>
