<svg width="23" height="28" viewBox="0 0 23 28" fill="none" xmlns="http://www.w3.org/2000/svg">
<path d="M18.4849 14.733C18.4726 12.5214 19.4267 10.8547 21.3536 9.62572C20.2759 8.00438 18.6455 7.11264 16.4963 6.94078C14.4614 6.77216 12.2351 8.18597 11.4199 8.18597C10.5584 8.18597 8.58833 6.99914 7.03822 6.99914C3.83919 7.05103 0.439453 9.6776 0.439453 15.0216C0.439453 16.6007 0.714273 18.2318 1.26391 19.9115C1.99882 22.123 4.64821 27.5416 7.41185 27.454C8.85697 27.4184 9.87906 26.3775 11.7596 26.3775C13.5845 26.3775 14.5294 27.454 16.1412 27.454C18.9296 27.4119 21.3258 22.4862 22.0236 20.2682C18.2842 18.4167 18.4849 14.8465 18.4849 14.733ZM15.2396 4.84276C16.8051 2.89066 16.6631 1.11366 16.6168 0.474854C15.2334 0.559163 13.6339 1.46387 12.723 2.57612C11.7194 3.76943 11.1296 5.24485 11.2562 6.90835C12.7508 7.02833 14.1156 6.2209 15.2396 4.84276Z" fill="white"/>
</svg>
