<svg width="32" height="32" viewBox="0 0 32 32" fill="none" xmlns="http://www.w3.org/2000/svg">
<path d="M15.4765 3.12283C15.622 2.99639 15.8083 2.92676 16.0011 2.92676C16.1939 2.92676 16.3803 2.99639 16.5258 3.12283L19.1231 5.37883C19.204 5.44917 19.2982 5.50253 19.4002 5.53574C19.5021 5.56895 19.6097 5.58134 19.7165 5.57217L23.1458 5.2735C23.3378 5.25701 23.5293 5.31038 23.6851 5.4238C23.8409 5.53721 23.9505 5.70305 23.9938 5.89083L24.7698 9.24283C24.7938 9.34758 24.8386 9.44643 24.9016 9.53348C24.9646 9.62053 25.0445 9.694 25.1365 9.7495L28.0858 11.5228C28.2508 11.6222 28.3745 11.7778 28.434 11.961C28.4935 12.1442 28.4849 12.3428 28.4098 12.5202L27.0658 15.6882C27.024 15.7869 27.0025 15.893 27.0025 16.0002C27.0025 16.1074 27.024 16.2135 27.0658 16.3122L28.4098 19.4802C28.4853 19.6577 28.4941 19.8566 28.4345 20.0401C28.375 20.2236 28.2512 20.3794 28.0858 20.4788L25.1365 22.2522C25.0446 22.3075 24.9648 22.3808 24.9018 22.4676C24.8388 22.5544 24.7939 22.653 24.7698 22.7575L23.9938 26.1095C23.9505 26.2973 23.8409 26.4631 23.6851 26.5765C23.5293 26.69 23.3378 26.7433 23.1458 26.7268L19.7165 26.4282C19.6098 26.4188 19.5022 26.431 19.4003 26.464C19.2984 26.4969 19.2041 26.5501 19.1231 26.6202L16.5245 28.8775C16.3789 29.0039 16.1926 29.0736 15.9998 29.0736C15.807 29.0736 15.6207 29.0039 15.4751 28.8775L12.8778 26.6202C12.7968 26.5501 12.7025 26.4969 12.6006 26.464C12.4987 26.431 12.3912 26.4188 12.2845 26.4282L8.85513 26.7268C8.66314 26.7433 8.47164 26.69 8.31584 26.5765C8.16005 26.4631 8.05043 26.2973 8.00713 26.1095L7.23113 22.7575C7.20718 22.6528 7.16236 22.5539 7.09936 22.4669C7.03637 22.3798 6.95648 22.3063 6.86447 22.2508L3.91513 20.4775C3.7501 20.3781 3.62646 20.2225 3.56694 20.0393C3.50742 19.8561 3.51601 19.6576 3.59113 19.4802L4.93513 16.3122C4.97694 16.2135 4.99848 16.1074 4.99848 16.0002C4.99848 15.893 4.97694 15.7869 4.93513 15.6882L3.59113 12.5202C3.51564 12.3426 3.50685 12.1438 3.56639 11.9602C3.62593 11.7767 3.74978 11.6209 3.91513 11.5215L6.86447 9.74817C6.95634 9.69282 7.03614 9.61956 7.09913 9.53275C7.16212 9.44593 7.20701 9.34734 7.23113 9.24283L8.00713 5.89083C8.05043 5.70305 8.16005 5.53721 8.31584 5.4238C8.47164 5.31038 8.66314 5.25701 8.85513 5.2735L12.2845 5.57217C12.3913 5.58134 12.4988 5.56895 12.6008 5.53574C12.7027 5.50253 12.7969 5.44917 12.8778 5.37883L15.4765 3.12283V3.12283Z" stroke="white" stroke-width="1.5"/>
<path d="M12 17.333L14.6667 19.9997L21.3333 13.333" stroke="white" stroke-width="1.5" stroke-linecap="round" stroke-linejoin="round"/>
</svg>
