<svg width="32" height="32" viewBox="0 0 32 32" fill="none" xmlns="http://www.w3.org/2000/svg">
<g clip-path="url(#clip0_1417_13990)">
<path d="M19.9987 32.0003H22.6654V29.3337H19.9987V32.0003ZM22.0787 5.92033L20.1454 7.85366C21.3203 8.56109 22.2924 9.56012 22.9675 10.7539C23.6427 11.9476 23.9979 13.2956 23.9987 14.667C23.9987 16.7887 23.1558 18.8236 21.6556 20.3238C20.1553 21.8241 18.1204 22.667 15.9987 22.667C13.877 22.667 11.8421 21.8241 10.3418 20.3238C8.84156 18.8236 7.9987 16.7887 7.9987 14.667C7.9987 11.7737 9.54537 9.25366 11.8387 7.84033L9.9187 5.92033C8.50256 6.89738 7.34515 8.20402 6.54614 9.72772C5.74712 11.2514 5.33046 12.9465 5.33204 14.667C5.33204 17.496 6.45584 20.2091 8.45623 22.2095C10.4566 24.2099 13.1697 25.3337 15.9987 25.3337C18.8277 25.3337 21.5408 24.2099 23.5412 22.2095C25.5416 20.2091 26.6654 17.496 26.6654 14.667C26.6654 11.0403 24.852 7.84033 22.0787 5.92033ZM17.332 2.66699H14.6654V16.0003H17.332V2.66699ZM14.6654 32.0003H17.332V29.3337H14.6654V32.0003ZM9.33204 32.0003H11.9987V29.3337H9.33204V32.0003Z" fill="white"/>
</g>
<defs>
<clipPath id="clip0_1417_13990">
<rect width="32" height="32" fill="white"/>
</clipPath>
</defs>
</svg>
