<svg width="46" height="46" viewBox="0 0 46 46" fill="none" xmlns="http://www.w3.org/2000/svg">
<g filter="url(#filter0_f_1417_13340)">
<path d="M15.9535 12.5249L24.3173 3.06861L33.3321 12.5309L26.2517 12.5285L38.488 27.7725L28.8328 27.7691L43.0001 43.0138L3.09221 43L19.1777 27.7658L9.52253 27.7625L22.3896 12.5271L15.9535 12.5249Z" stroke="white" stroke-width="0.890963"/>
</g>
<g filter="url(#filter1_f_1417_13340)">
<path d="M15.9535 12.5249L24.3173 3.06861L33.3321 12.5309L26.2517 12.5285L38.488 27.7725L28.8328 27.7691L43.0001 43.0138L3.09221 43L19.1777 27.7658L9.52253 27.7625L22.3896 12.5271L15.9535 12.5249Z" stroke="white" stroke-width="0.890963"/>
</g>
<path d="M15.9535 12.5249L24.3173 3.06861L33.3321 12.5309L26.2517 12.5285L38.488 27.7725L28.8328 27.7691L43.0001 43.0138L3.09221 43L19.1777 27.7658L9.52253 27.7625L22.3896 12.5271L15.9535 12.5249Z" stroke="white" stroke-width="0.445482"/>
<defs>
<filter id="filter0_f_1417_13340" x="0.192194" y="0.627985" width="45.6121" height="44.6137" filterUnits="userSpaceOnUse" color-interpolation-filters="sRGB">
<feFlood flood-opacity="0" result="BackgroundImageFix"/>
<feBlend mode="normal" in="SourceGraphic" in2="BackgroundImageFix" result="shape"/>
<feGaussianBlur stdDeviation="0.890963" result="effect1_foregroundBlur_1417_13340"/>
</filter>
<filter id="filter1_f_1417_13340" x="0.192194" y="0.627985" width="45.6121" height="44.6137" filterUnits="userSpaceOnUse" color-interpolation-filters="sRGB">
<feFlood flood-opacity="0" result="BackgroundImageFix"/>
<feBlend mode="normal" in="SourceGraphic" in2="BackgroundImageFix" result="shape"/>
<feGaussianBlur stdDeviation="0.890963" result="effect1_foregroundBlur_1417_13340"/>
</filter>
</defs>
</svg>
