<svg width="32" height="32" viewBox="0 0 32 32" fill="none" xmlns="http://www.w3.org/2000/svg">
<path d="M30.0723 20.8279C30.0815 20.6173 30.0259 20.409 29.913 20.231C29.8002 20.053 29.6355 19.9139 29.4412 19.8323L27.9479 19.3879C27.8679 19.1746 27.7879 18.9612 27.6901 18.7568L28.3834 17.4768C28.4875 17.2807 28.5256 17.0563 28.492 16.8369C28.4583 16.6175 28.3548 16.4149 28.1967 16.259L26.9345 15.0057C26.7776 14.8491 26.5744 14.7472 26.3551 14.7152C26.1357 14.6832 25.9119 14.7227 25.7167 14.8279L24.4279 15.5034C24.2078 15.3968 23.9823 15.3019 23.7523 15.219L23.3256 13.8146C23.2544 13.611 23.1206 13.4351 22.9434 13.3122C22.7662 13.1892 22.5546 13.1255 22.339 13.1301H20.5612C20.3404 13.1299 20.1253 13.2007 19.9477 13.3319C19.7701 13.4631 19.6393 13.6479 19.5745 13.859L19.1567 15.2279C18.9237 15.3104 18.6952 15.4053 18.4723 15.5123L17.2101 14.8368C17.0159 14.7337 16.7939 14.6953 16.5765 14.7273C16.359 14.7593 16.1574 14.8599 16.0012 15.0146L14.7123 16.259C14.5523 16.4155 14.4475 16.6198 14.4138 16.8411C14.3801 17.0624 14.4194 17.2887 14.5256 17.4857L15.1834 18.6679C15.0801 18.8822 14.9881 19.1017 14.9079 19.3257L13.5034 19.7434C13.2899 19.8053 13.1023 19.9351 12.9692 20.1131C12.836 20.2912 12.7646 20.5078 12.7656 20.7301V22.5079C12.7665 22.7287 12.8389 22.9433 12.9719 23.1195C13.1048 23.2958 13.2913 23.4242 13.5034 23.4857L14.9167 23.9034C14.9974 24.1214 15.0894 24.335 15.1923 24.5434L14.499 25.8412C14.3949 26.0373 14.3568 26.2617 14.3904 26.4811C14.4241 26.7005 14.5276 26.9031 14.6856 27.059L15.9479 28.3034C16.1037 28.4615 16.3064 28.565 16.5258 28.5986C16.7452 28.6323 16.9696 28.5942 17.1656 28.4901L18.4812 27.7968C18.6856 27.8946 18.899 27.9746 19.1212 28.0546L19.5567 29.4946C19.623 29.704 19.7545 29.8869 19.932 30.0164C20.1095 30.1459 20.3237 30.2153 20.5434 30.2146H22.3212C22.542 30.2147 22.7571 30.144 22.9347 30.0128C23.1123 29.8816 23.2431 29.6968 23.3079 29.4857L23.7256 28.0812C23.939 28.0101 24.1434 27.9212 24.3479 27.8234L25.6812 28.5257C25.8753 28.6288 26.0973 28.6671 26.3148 28.6351C26.5323 28.6032 26.7338 28.5025 26.8901 28.3479L28.1523 27.1034C28.3124 26.947 28.4171 26.7426 28.4508 26.5213C28.4845 26.3 28.4452 26.0738 28.339 25.8768L27.6367 24.5879C27.7316 24.3864 27.8175 24.182 27.8945 23.9746L29.3345 23.5568C29.5481 23.4949 29.7356 23.3651 29.8688 23.1871C30.0019 23.009 30.0734 22.7924 30.0723 22.5701V20.8279ZM28.6501 22.2768L26.7745 22.8279L26.6679 23.2012C26.5582 23.5688 26.4092 23.9234 26.2234 24.259L26.0367 24.5968L26.9256 26.2946L26.0367 27.1834L24.259 26.2946L23.9301 26.4723C23.5907 26.6543 23.2332 26.8003 22.8634 26.9079L22.4901 27.0146L21.9301 28.8723H20.819L20.259 27.0234L19.8856 26.9168C19.5129 26.8097 19.1524 26.6637 18.8101 26.4812L18.4812 26.3034L16.7567 27.1923L15.8679 26.3034L16.7567 24.579L16.5612 24.2412C16.3828 23.8815 16.2457 23.5028 16.1523 23.1123L16.0012 22.7834L14.2234 22.2234V21.059L16.0012 20.5168L16.1167 20.1523C16.2321 19.7713 16.3901 19.4045 16.5879 19.059L16.8012 18.6679L15.9123 17.0234L16.8012 16.1879L18.4812 17.0768L18.819 16.8901C19.1743 16.6955 19.5499 16.5405 19.939 16.4279L20.3034 16.3212L20.8634 14.5434H22.0901L22.6412 16.3212L23.0056 16.4279C23.3826 16.5428 23.7461 16.6978 24.0901 16.8901L24.4279 17.0768L26.1345 16.1879L27.0234 17.0768L26.1345 18.7568L26.3212 19.0946C26.5076 19.436 26.6566 19.7966 26.7656 20.1701L26.8723 20.5434L28.7034 21.0857L28.6501 22.2768Z" fill="white"/>
<path d="M21.4415 18.0889C20.7415 18.1029 20.0611 18.3233 19.4859 18.7224C18.9106 19.1215 18.4659 19.6816 18.2077 20.3324C17.9495 20.9832 17.8891 21.6957 18.0342 22.3807C18.1794 23.0656 18.5235 23.6925 19.0234 24.1827C19.5234 24.6728 20.157 25.0045 20.8447 25.136C21.5324 25.2675 22.2436 25.1931 22.8892 24.922C23.5347 24.6509 24.0859 24.1953 24.4735 23.6122C24.8611 23.0292 25.068 22.3446 25.0681 21.6445C25.0541 20.6935 24.6653 19.7866 23.9861 19.1207C23.307 18.4549 22.3925 18.0841 21.4415 18.0889ZM21.4415 23.8311C21.0163 23.8224 20.6031 23.6883 20.2538 23.4457C19.9045 23.2031 19.6346 22.8628 19.4779 22.4674C19.3212 22.072 19.2847 21.6392 19.373 21.2232C19.4613 20.8071 19.6704 20.4264 19.9742 20.1288C20.278 19.8311 20.6629 19.6298 21.0806 19.55C21.4983 19.4702 21.9304 19.5154 22.3225 19.6802C22.7146 19.8449 23.0493 20.1217 23.2848 20.4759C23.5202 20.83 23.6458 21.2458 23.6459 21.6711C23.6436 21.9583 23.5847 22.2422 23.4727 22.5066C23.3606 22.771 23.1976 23.0108 22.9929 23.2122C22.7882 23.4136 22.5458 23.5727 22.2796 23.6804C22.0134 23.7881 21.7286 23.8424 21.4415 23.84V23.8311Z" fill="white"/>
<path d="M12.8791 27.5559H5.33247V4.44477H23.1102V11.4581C23.4982 11.572 23.8574 11.7672 24.164 12.0308C24.4706 12.2945 24.7174 12.6204 24.888 12.987V4.44477C24.888 3.97327 24.7007 3.52109 24.3673 3.18769C24.0339 2.85429 23.5817 2.66699 23.1102 2.66699H5.33247C4.86097 2.66699 4.40878 2.85429 4.07539 3.18769C3.74199 3.52109 3.55469 3.97327 3.55469 4.44477V27.5559C3.55469 28.0274 3.74199 28.4796 4.07539 28.813C4.40878 29.1464 4.86097 29.3337 5.33247 29.3337H14.4258L13.448 28.3737C13.2104 28.1378 13.0177 27.8607 12.8791 27.5559Z" fill="white"/>
</svg>
