<svg width="32" height="32" viewBox="0 0 32 32" fill="none" xmlns="http://www.w3.org/2000/svg">
<path d="M15.4755 3.12283C15.621 2.99639 15.8074 2.92676 16.0002 2.92676C16.193 2.92676 16.3793 2.99639 16.5248 3.12283L19.1222 5.37883C19.2031 5.44917 19.2973 5.50253 19.3992 5.53574C19.5011 5.56895 19.6087 5.58134 19.7155 5.57217L23.1448 5.2735C23.3368 5.25701 23.5283 5.31038 23.6841 5.4238C23.8399 5.53721 23.9495 5.70305 23.9928 5.89083L24.7688 9.24283C24.7928 9.34758 24.8376 9.44643 24.9006 9.53348C24.9636 9.62053 25.0435 9.694 25.1355 9.7495L28.0848 11.5228C28.2499 11.6222 28.3735 11.7778 28.433 11.961C28.4925 12.1442 28.484 12.3428 28.4088 12.5202L27.0648 15.6882C27.023 15.7869 27.0015 15.893 27.0015 16.0002C27.0015 16.1074 27.023 16.2135 27.0648 16.3122L28.4088 19.4802C28.4843 19.6577 28.4931 19.8566 28.4336 20.0401C28.374 20.2236 28.2502 20.3794 28.0848 20.4788L25.1355 22.2522C25.0436 22.3075 24.9638 22.3808 24.9008 22.4676C24.8378 22.5544 24.7929 22.653 24.7688 22.7575L23.9928 26.1095C23.9495 26.2973 23.8399 26.4631 23.6841 26.5765C23.5283 26.69 23.3368 26.7433 23.1448 26.7268L19.7155 26.4282C19.6088 26.4188 19.5013 26.431 19.3993 26.464C19.2974 26.4969 19.2032 26.5501 19.1222 26.6202L16.5235 28.8775C16.3779 29.0039 16.1916 29.0736 15.9988 29.0736C15.806 29.0736 15.6197 29.0039 15.4742 28.8775L12.8768 26.6202C12.7958 26.5501 12.7016 26.4969 12.5996 26.464C12.4977 26.431 12.3902 26.4188 12.2835 26.4282L8.85416 26.7268C8.66216 26.7433 8.47066 26.69 8.31487 26.5765C8.15907 26.4631 8.04945 26.2973 8.00616 26.1095L7.23016 22.7575C7.2062 22.6528 7.16138 22.5539 7.09839 22.4669C7.03539 22.3798 6.9555 22.3063 6.86349 22.2508L3.91416 20.4775C3.74912 20.3781 3.62548 20.2225 3.56596 20.0393C3.50644 19.8561 3.51503 19.6576 3.59016 19.4802L4.93416 16.3122C4.97596 16.2135 4.99751 16.1074 4.99751 16.0002C4.99751 15.893 4.97596 15.7869 4.93416 15.6882L3.59016 12.5202C3.51466 12.3426 3.50587 12.1438 3.56541 11.9602C3.62495 11.7767 3.74881 11.6209 3.91416 11.5215L6.86349 9.74817C6.95536 9.69282 7.03517 9.61956 7.09816 9.53275C7.16115 9.44593 7.20604 9.34734 7.23016 9.24283L8.00616 5.89083C8.04945 5.70305 8.15907 5.53721 8.31487 5.4238C8.47066 5.31038 8.66216 5.25701 8.85416 5.2735L12.2835 5.57217C12.3903 5.58134 12.4979 5.56895 12.5998 5.53574C12.7017 5.50253 12.7959 5.44917 12.8768 5.37883L15.4755 3.12283V3.12283Z" stroke="white" stroke-width="1.5"/>
<path d="M12 17.333L14.6667 19.9997L21.3333 13.333" stroke="white" stroke-width="1.5" stroke-linecap="round" stroke-linejoin="round"/>
</svg>
