<svg width="32" height="36" viewBox="0 0 32 36" fill="none" xmlns="http://www.w3.org/2000/svg">
<g filter="url(#filter0_f_1417_22336)">
<path fill-rule="evenodd" clip-rule="evenodd" d="M16.0001 29.9998C20.4421 29.9998 24.0001 26.4732 24.0001 22.1752C24.0001 18.6038 21.8814 14.5178 19.5701 11.1738C18.4711 9.59088 17.279 8.07466 16.0001 6.63317C14.7212 8.07466 13.5291 9.59088 12.4301 11.1738C10.1187 14.5178 8.00008 18.6038 8.00008 22.1752C8.00008 26.4725 11.5581 29.9998 16.0001 29.9998ZM15.0934 5.6465C12.7481 8.2725 6.66675 15.7065 6.66675 22.1752C6.66675 27.2332 10.8454 31.3332 16.0001 31.3332C21.1547 31.3332 25.3334 27.2332 25.3334 22.1752C25.3334 15.7065 19.2521 8.2725 16.9067 5.6465C16.3467 5.01984 16.0001 4.6665 16.0001 4.6665C16.0001 4.6665 15.6534 5.01984 15.0934 5.6465Z" fill="white"/>
</g>
<g filter="url(#filter1_f_1417_22336)">
<path fill-rule="evenodd" clip-rule="evenodd" d="M16.0001 29.9998C20.4421 29.9998 24.0001 26.4732 24.0001 22.1752C24.0001 18.6038 21.8814 14.5178 19.5701 11.1738C18.4711 9.59088 17.279 8.07466 16.0001 6.63317C14.7212 8.07466 13.5291 9.59088 12.4301 11.1738C10.1187 14.5178 8.00008 18.6038 8.00008 22.1752C8.00008 26.4725 11.5581 29.9998 16.0001 29.9998ZM15.0934 5.6465C12.7481 8.2725 6.66675 15.7065 6.66675 22.1752C6.66675 27.2332 10.8454 31.3332 16.0001 31.3332C21.1547 31.3332 25.3334 27.2332 25.3334 22.1752C25.3334 15.7065 19.2521 8.2725 16.9067 5.6465C16.3467 5.01984 16.0001 4.6665 16.0001 4.6665C16.0001 4.6665 15.6534 5.01984 15.0934 5.6465Z" fill="white"/>
</g>
<path fill-rule="evenodd" clip-rule="evenodd" d="M16.0001 29.9998C20.4421 29.9998 24.0001 26.4732 24.0001 22.1752C24.0001 18.6038 21.8814 14.5178 19.5701 11.1738C18.4711 9.59088 17.279 8.07466 16.0001 6.63317C14.7212 8.07466 13.5291 9.59088 12.4301 11.1738C10.1187 14.5178 8.00008 18.6038 8.00008 22.1752C8.00008 26.4725 11.5581 29.9998 16.0001 29.9998ZM15.0934 5.6465C12.7481 8.2725 6.66675 15.7065 6.66675 22.1752C6.66675 27.2332 10.8454 31.3332 16.0001 31.3332C21.1547 31.3332 25.3334 27.2332 25.3334 22.1752C25.3334 15.7065 19.2521 8.2725 16.9067 5.6465C16.3467 5.01984 16.0001 4.6665 16.0001 4.6665C16.0001 4.6665 15.6534 5.01984 15.0934 5.6465Z" fill="white"/>
<defs>
<filter id="filter0_f_1417_22336" x="-4" y="-2" width="40" height="40" filterUnits="userSpaceOnUse" color-interpolation-filters="sRGB">
<feFlood flood-opacity="0" result="BackgroundImageFix"/>
<feBlend mode="normal" in="SourceGraphic" in2="BackgroundImageFix" result="shape"/>
<feGaussianBlur stdDeviation="2" result="effect1_foregroundBlur_1417_22336"/>
</filter>
<filter id="filter1_f_1417_22336" x="-2" y="0" width="36" height="36" filterUnits="userSpaceOnUse" color-interpolation-filters="sRGB">
<feFlood flood-opacity="0" result="BackgroundImageFix"/>
<feBlend mode="normal" in="SourceGraphic" in2="BackgroundImageFix" result="shape"/>
<feGaussianBlur stdDeviation="1" result="effect1_foregroundBlur_1417_22336"/>
</filter>
</defs>
</svg>
