<svg width="21" height="20" viewBox="0 0 21 20" fill="none" xmlns="http://www.w3.org/2000/svg">
<g clip-path="url(#clip0_1569_462)">
<path d="M3.83927 0.698313L15.5304 6.86028L13.0245 9.15734L3.83927 0.698313ZM1.41713 0.200195L12.1489 9.99924L1.41802 19.7983C1.13529 19.6854 0.8963 19.497 0.73228 19.2576C0.568261 19.0183 0.486849 18.7391 0.498689 18.4566V18.4591V1.54021L0.497798 1.48714C0.497798 0.914709 0.871943 0.422307 1.40822 0.204278L1.41802 0.201012L1.41713 0.200195ZM19.1641 8.85112C19.5329 9.10181 19.769 9.5003 19.769 9.94861L19.7681 10.0017V9.99924C19.7907 10.2183 19.751 10.439 19.6528 10.6398C19.5546 10.8407 19.4012 11.0147 19.2077 11.1449L19.2042 11.1474L16.6983 12.4482L13.9848 9.99924L16.6992 7.5111L19.1641 8.85112ZM3.83927 19.3002L13.0254 10.8411L15.5313 13.1382L3.83927 19.3002Z" fill="white"/>
</g>
<defs>
<clipPath id="clip0_1569_462">
<rect width="19.5981" height="19.5981" fill="white" transform="translate(0.497559 0.200195)"/>
</clipPath>
</defs>
</svg>
