<svg width="32" height="32" viewBox="0 0 32 32" fill="none" xmlns="http://www.w3.org/2000/svg">
<path d="M30 18H24C23.4697 17.9995 22.9613 17.7886 22.5864 17.4136C22.2114 17.0387 22.0005 16.5303 22 16V6C22.0005 5.46973 22.2114 4.96133 22.5864 4.58637C22.9613 4.21141 23.4697 4.00053 24 4H30V6H24V16H30V18Z" fill="white"/>
<path d="M18 6C19.1046 6 20 5.10457 20 4C20 2.89543 19.1046 2 18 2C16.8954 2 16 2.89543 16 4C16 5.10457 16.8954 6 18 6Z" fill="white"/>
<path d="M10 20.184V12H8.00001V20.184C7.33279 20.4199 6.77045 20.8841 6.41237 21.4945C6.0543 22.1049 5.92354 22.8222 6.04321 23.5197C6.16288 24.2172 6.52528 24.85 7.06635 25.3061C7.60741 25.7622 8.29232 26.0124 9.00001 26.0124C9.70769 26.0124 10.3926 25.7622 10.9337 25.3061C11.4747 24.85 11.8371 24.2172 11.9568 23.5197C12.0765 22.8222 11.9457 22.1049 11.5876 21.4945C11.2296 20.8841 10.6672 20.4199 10 20.184Z" fill="white"/>
<path d="M9.00087 30C7.62284 30.0016 6.27508 29.5959 5.12681 28.8341C3.97854 28.0722 3.08096 26.9881 2.54678 25.7178C2.0126 24.4475 1.86564 23.0477 2.12434 21.6942C2.38304 20.3407 3.03588 19.0937 4.00087 18.11V7C4.00087 5.67392 4.52765 4.40215 5.46534 3.46447C6.40302 2.52678 7.67479 2 9.00087 2C10.327 2 11.5987 2.52678 12.5364 3.46447C13.4741 4.40215 14.0009 5.67392 14.0009 7V18.11C14.9659 19.0937 15.6187 20.3407 15.8774 21.6942C16.1361 23.0477 15.9891 24.4475 15.455 25.7178C14.9208 26.9881 14.0232 28.0722 12.8749 28.8341C11.7267 29.5959 10.3789 30.0016 9.00087 30ZM9.00087 4C8.20546 4.00079 7.44286 4.31712 6.88043 4.87956C6.31799 5.44199 6.00166 6.20459 6.00087 7V18.983L5.66887 19.282C4.91375 19.9569 4.38139 20.8452 4.14225 21.8294C3.90311 22.8135 3.96848 23.8471 4.32969 24.7932C4.6909 25.7394 5.33093 26.5536 6.16506 27.128C6.99919 27.7024 7.98809 28.01 9.00087 28.01C10.0136 28.01 11.0025 27.7024 11.8367 27.128C12.6708 26.5536 13.3108 25.7394 13.6721 24.7932C14.0333 23.8471 14.0986 22.8135 13.8595 21.8294C13.6204 20.8452 13.088 19.9569 12.3329 19.282L12.0009 18.983V7C12.0001 6.20459 11.6838 5.44199 11.1213 4.87956C10.5589 4.31712 9.79628 4.00079 9.00087 4Z" fill="white"/>
</svg>
