<svg width="14" height="14" viewBox="0 0 14 14" fill="none" xmlns="http://www.w3.org/2000/svg">
<path d="M7.00023 11.1158L6.83223 10.9758C3.22023 8.0358 2.24023 6.9998 2.24023 5.3198C2.24023 3.9198 3.36023 2.7998 4.76023 2.7998C5.90823 2.7998 6.55223 3.4438 7.00023 3.9478C7.44823 3.4438 8.09223 2.7998 9.24023 2.7998C10.6402 2.7998 11.7602 3.9198 11.7602 5.3198C11.7602 6.9998 10.7802 8.0358 7.16823 10.9758L7.00023 11.1158ZM4.76023 3.3598C3.66823 3.3598 2.80023 4.2278 2.80023 5.3198C2.80023 6.7478 3.69623 7.6998 7.00023 10.3878C10.3042 7.6998 11.2002 6.7478 11.2002 5.3198C11.2002 4.2278 10.3322 3.3598 9.24023 3.3598C8.26023 3.3598 7.72823 3.9478 7.30823 4.4238L7.00023 4.7878L6.69223 4.4238C6.27223 3.9478 5.74023 3.3598 4.76023 3.3598Z" fill="white"/>
</svg>
