<svg width="108" height="23" viewBox="0 0 108 23" fill="none" xmlns="http://www.w3.org/2000/svg">
<path d="M50.6551 22.9306C48.7849 22.9306 47.0543 22.0852 45.9471 20.6079L34.847 5.73759H17.1966C16.3871 5.73759 15.7265 6.36943 15.7265 7.14365C15.7265 7.91786 16.3871 8.5497 17.1966 8.5497H28.9852C33.0513 8.5497 36.3543 11.7089 36.3543 15.5978C36.3543 19.4866 33.0513 22.6547 28.9946 22.6547H0.988434L6.8874 17.0127H28.9946C29.804 17.0127 30.4646 16.3809 30.4646 15.6067C30.4646 14.8324 29.804 14.2006 28.9946 14.2006H17.1966C13.1306 14.2006 9.82758 11.0414 9.82758 7.15255C9.82758 3.26366 13.1306 0.104492 17.1966 0.104492H37.8709L50.6458 17.2085L61.2062 0.104492H71.7295V5.74649H64.5744L55.8004 19.9672C54.87 21.6669 53.1301 22.7615 51.1203 22.9128C50.9622 22.9217 50.804 22.9306 50.6551 22.9306Z" fill="white"/>
<path d="M77.6284 5.7373H71.7295V22.6544H77.6284V5.7373Z" fill="white"/>
<path d="M101.206 5.7376H77.6284V0.104492H107.095L101.206 5.7376Z" fill="white"/>
<path d="M92.3666 2.91699H86.4676V22.6551H92.3666V2.91699Z" fill="white"/>
</svg>
