<svg width="128" height="13" viewBox="0 0 128 13" fill="none" xmlns="http://www.w3.org/2000/svg">
<path d="M0 0.589702H3.73837V12.4131H0V0.589702Z" fill="white"/>
<path d="M6.94289 0.589067H12.8925L20.3296 9.57634L20.237 0.589067H23.7738V12.4125H17.7762L10.4416 3.51431L10.5342 12.4125H6.94289V0.589067Z" fill="white"/>
<path d="M42.3367 7.96182C42.3185 9.68134 42.2623 10.2667 42.0062 10.798C41.5269 11.8097 40.532 12.2884 38.6165 12.4125C37.8613 12.4825 36.3887 12.5 33.9394 12.5C30.4027 12.5 29.2607 12.3409 28.2658 11.7206C27.0511 10.9761 26.7007 9.73542 26.7007 6.22482C26.7007 3.10552 27.0693 1.98887 28.3534 1.27943C29.459 0.659068 30.6374 0.5 34.0816 0.5C38.6678 0.5 39.661 0.589075 40.7121 1.08536C41.7037 1.56256 42.1665 2.60923 42.1665 4.34624V4.73595H38.6C38.5256 3.44274 38.2496 3.33616 35.0087 3.33616C31.9513 3.33616 31.3993 3.40615 30.9382 3.79745C30.4771 4.18876 30.4044 4.66596 30.4044 6.57953C30.4044 9.41569 30.6804 9.62884 34.2716 9.62884C37.0531 9.62884 37.458 9.61135 37.9736 9.3982C38.4893 9.18505 38.7107 8.81283 38.7107 7.9666L42.3367 7.96182Z" fill="white"/>
<path d="M45.2817 0.589067H55.8705C58.0437 0.589067 59.0023 0.765631 59.7014 1.3335C60.4004 1.90137 60.7459 2.89235 60.7459 4.48779C60.7459 6.6861 60.1939 7.5546 58.6288 7.89182C60.1575 8.13997 60.612 8.76033 60.5806 10.5498V12.4125H56.7794V10.9411C56.7612 9.6686 56.3927 9.39819 54.7169 9.43318H49.0019V12.4125H45.2817V0.589067ZM54.8392 6.54453C56.6439 6.54453 56.9877 6.33138 56.9877 5.16224C56.9877 4.40031 56.9133 4.08058 56.6753 3.83244C56.3977 3.5493 56.0853 3.49522 54.9615 3.49522H48.9953V6.54453H54.8392Z" fill="white"/>
<path d="M77.3801 0.589067V3.26457H67.4524V5.30381H76.8082V7.64368H67.4524V9.73541H77.509V12.4125H63.7686V0.589067H77.3801Z" fill="white"/>
<path d="M86.3624 0.589067H91.3717L98.0964 12.4125H94.0077L92.7914 10.3017H84.875L83.6967 12.4125H79.4575L86.3624 0.589067ZM91.4857 7.83774L88.8414 3.123L86.217 7.83774H91.4857Z" fill="white"/>
<path d="M102.679 3.51431H97.209V0.589067H111.888V3.51431H106.418V12.4125H102.679V3.51431Z" fill="white"/>
<path d="M127.871 0.589067V3.26457H117.943V5.30381H127.301V7.64368H117.943V9.73541H128V12.4125H114.261V0.589067H127.871Z" fill="white"/>
</svg>
