<svg width="24" height="24" viewBox="0 0 24 24" fill="none" xmlns="http://www.w3.org/2000/svg">
<path d="M19.8563 4.14374C19.3628 3.65369 18.6955 3.37866 18 3.37866C17.3045 3.37866 16.6373 3.65369 16.1438 4.14374C16.125 4.17187 16.0969 4.19062 16.0875 4.21874L13.3969 7.05937L5.38128 4.14374C5.31342 4.1212 5.24062 4.11803 5.17106 4.13459C5.1015 4.15115 5.03794 4.18679 4.98753 4.23749L2.73752 6.48749C2.69761 6.5258 2.6669 6.57266 2.64773 6.62456C2.62855 6.67646 2.6214 6.73203 2.62681 6.78708C2.63223 6.84214 2.65007 6.89526 2.67899 6.94242C2.70791 6.98959 2.74716 7.02957 2.79377 7.05937L9.1594 11.3062L7.34065 13.125H5.25003C5.20071 13.1234 5.15164 13.1327 5.10629 13.1521C5.06094 13.1715 5.0204 13.2007 4.98753 13.2375L2.73752 15.4875C2.69172 15.5314 2.65812 15.5865 2.64004 15.6473C2.62196 15.7081 2.62001 15.7726 2.6344 15.8344C2.6485 15.8967 2.67829 15.9544 2.72095 16.002C2.76361 16.0496 2.81772 16.0855 2.87815 16.1062L6.62815 17.3719L7.89378 21.1219C7.91457 21.1823 7.95046 21.2364 7.99804 21.2791C8.04562 21.3217 8.10332 21.3515 8.16565 21.3656H8.25003C8.29917 21.366 8.34787 21.3562 8.39304 21.3368C8.43822 21.3175 8.4789 21.289 8.51253 21.2531L10.7625 19.0031C10.7981 18.9713 10.8265 18.9323 10.8459 18.8886C10.8653 18.845 10.8752 18.7977 10.875 18.75V16.6687L12.7032 15.0094L16.9407 21.2156C16.9726 21.2595 17.0132 21.2963 17.06 21.3237C17.1067 21.3511 17.1587 21.3686 17.2125 21.375C17.2678 21.381 17.3238 21.3739 17.3759 21.3544C17.428 21.3348 17.4748 21.3034 17.5125 21.2625L19.7625 19.0125C19.8132 18.9621 19.8489 18.8985 19.8654 18.829C19.882 18.7594 19.8788 18.6866 19.8563 18.6187L16.9407 10.6031L19.9125 7.80937L19.9782 7.72499C20.4133 7.22273 20.6425 6.57459 20.6199 5.91045C20.5973 5.24632 20.3245 4.61526 19.8563 4.14374ZM19.3219 7.32187L19.2938 7.35937L16.2469 10.2281C16.1928 10.2783 16.1544 10.343 16.1361 10.4145C16.1178 10.486 16.1205 10.5612 16.1438 10.6312L19.0688 18.6562L17.3063 20.4187L13.0782 14.2312C13.0478 14.1871 13.009 14.1494 12.9639 14.1204C12.9188 14.0915 12.8684 14.0718 12.8157 14.0625H12.7688C12.6742 14.0629 12.5835 14.0998 12.5157 14.1656L10.2469 16.2187C10.1708 16.2928 10.127 16.3939 10.125 16.5V18.5906L8.4094 20.3062L7.27503 16.9594C7.25718 16.9046 7.22665 16.8548 7.18592 16.8141C7.14519 16.7734 7.09542 16.7428 7.04065 16.725L3.69378 15.5906L5.4094 13.875H7.50003C7.54934 13.8766 7.59841 13.8673 7.64376 13.8479C7.68912 13.8284 7.72966 13.7993 7.76253 13.7625L10.0125 11.5125C10.0524 11.4742 10.0831 11.4273 10.1023 11.3754C10.1215 11.3235 10.1287 11.268 10.1232 11.2129C10.1178 11.1578 10.1 11.1047 10.0711 11.0576C10.0421 11.0104 10.0029 10.9704 9.95628 10.9406L3.59065 6.69374L5.34378 4.93124L13.3688 7.85624C13.4388 7.87956 13.514 7.88223 13.5855 7.86395C13.657 7.84566 13.7217 7.80718 13.7719 7.75312L16.7438 4.61249L16.7719 4.58437C17.1409 4.28518 17.6097 4.13718 18.0835 4.17029C18.5574 4.2034 19.001 4.41514 19.3248 4.76273C19.6486 5.11031 19.8284 5.56784 19.8278 6.04287C19.8273 6.5179 19.6465 6.97502 19.3219 7.32187Z" fill="#181A1E"/>
</svg>
