<svg width="32" height="38" viewBox="0 0 32 38" fill="none" xmlns="http://www.w3.org/2000/svg">
<g clip-path="url(#clip0_1417_22447)" filter="url(#filter0_f_1417_22447)">
<path d="M19.9997 34.0003H22.6663V31.3337H19.9997V34.0003ZM22.0797 7.92033L20.1463 9.85366C21.3212 10.5611 22.2934 11.5601 22.9685 12.7539C23.6437 13.9476 23.9989 15.2956 23.9997 16.667C23.9997 18.7887 23.1568 20.8236 21.6565 22.3238C20.1562 23.8241 18.1214 24.667 15.9997 24.667C13.8779 24.667 11.8431 23.8241 10.3428 22.3238C8.84253 20.8236 7.99968 18.7887 7.99968 16.667C7.99968 13.7737 9.54635 11.2537 11.8397 9.84033L9.91968 7.92033C8.50354 8.89738 7.34613 10.204 6.54711 11.7277C5.7481 13.2514 5.33144 14.9465 5.33301 16.667C5.33301 19.496 6.45682 22.2091 8.45721 24.2095C10.4576 26.2099 13.1707 27.3337 15.9997 27.3337C18.8287 27.3337 21.5418 26.2099 23.5422 24.2095C25.5425 22.2091 26.6663 19.496 26.6663 16.667C26.6663 13.0403 24.853 9.84033 22.0797 7.92033ZM17.333 4.66699H14.6663V18.0003H17.333V4.66699ZM14.6663 34.0003H17.333V31.3337H14.6663V34.0003ZM9.33301 34.0003H11.9997V31.3337H9.33301V34.0003Z" fill="white"/>
</g>
<g clip-path="url(#clip1_1417_22447)" filter="url(#filter1_f_1417_22447)">
<path d="M19.9997 34.0003H22.6663V31.3337H19.9997V34.0003ZM22.0797 7.92033L20.1463 9.85366C21.3212 10.5611 22.2934 11.5601 22.9685 12.7539C23.6437 13.9476 23.9989 15.2956 23.9997 16.667C23.9997 18.7887 23.1568 20.8236 21.6565 22.3238C20.1562 23.8241 18.1214 24.667 15.9997 24.667C13.8779 24.667 11.8431 23.8241 10.3428 22.3238C8.84253 20.8236 7.99968 18.7887 7.99968 16.667C7.99968 13.7737 9.54635 11.2537 11.8397 9.84033L9.91968 7.92033C8.50354 8.89738 7.34613 10.204 6.54711 11.7277C5.7481 13.2514 5.33144 14.9465 5.33301 16.667C5.33301 19.496 6.45682 22.2091 8.45721 24.2095C10.4576 26.2099 13.1707 27.3337 15.9997 27.3337C18.8287 27.3337 21.5418 26.2099 23.5422 24.2095C25.5425 22.2091 26.6663 19.496 26.6663 16.667C26.6663 13.0403 24.853 9.84033 22.0797 7.92033ZM17.333 4.66699H14.6663V18.0003H17.333V4.66699ZM14.6663 34.0003H17.333V31.3337H14.6663V34.0003ZM9.33301 34.0003H11.9997V31.3337H9.33301V34.0003Z" fill="white"/>
</g>
<g clip-path="url(#clip2_1417_22447)">
<path d="M19.9997 34.0003H22.6663V31.3337H19.9997V34.0003ZM22.0797 7.92033L20.1463 9.85366C21.3212 10.5611 22.2934 11.5601 22.9685 12.7539C23.6437 13.9476 23.9989 15.2956 23.9997 16.667C23.9997 18.7887 23.1568 20.8236 21.6565 22.3238C20.1562 23.8241 18.1214 24.667 15.9997 24.667C13.8779 24.667 11.8431 23.8241 10.3428 22.3238C8.84253 20.8236 7.99968 18.7887 7.99968 16.667C7.99968 13.7737 9.54635 11.2537 11.8397 9.84033L9.91968 7.92033C8.50354 8.89738 7.34613 10.204 6.54711 11.7277C5.7481 13.2514 5.33144 14.9465 5.33301 16.667C5.33301 19.496 6.45682 22.2091 8.45721 24.2095C10.4576 26.2099 13.1707 27.3337 15.9997 27.3337C18.8287 27.3337 21.5418 26.2099 23.5422 24.2095C25.5425 22.2091 26.6663 19.496 26.6663 16.667C26.6663 13.0403 24.853 9.84033 22.0797 7.92033ZM17.333 4.66699H14.6663V18.0003H17.333V4.66699ZM14.6663 34.0003H17.333V31.3337H14.6663V34.0003ZM9.33301 34.0003H11.9997V31.3337H9.33301V34.0003Z" fill="white"/>
</g>
<defs>
<filter id="filter0_f_1417_22447" x="-4" y="-2" width="40" height="40" filterUnits="userSpaceOnUse" color-interpolation-filters="sRGB">
<feFlood flood-opacity="0" result="BackgroundImageFix"/>
<feBlend mode="normal" in="SourceGraphic" in2="BackgroundImageFix" result="shape"/>
<feGaussianBlur stdDeviation="2" result="effect1_foregroundBlur_1417_22447"/>
</filter>
<filter id="filter1_f_1417_22447" x="-2" y="0" width="36" height="36" filterUnits="userSpaceOnUse" color-interpolation-filters="sRGB">
<feFlood flood-opacity="0" result="BackgroundImageFix"/>
<feBlend mode="normal" in="SourceGraphic" in2="BackgroundImageFix" result="shape"/>
<feGaussianBlur stdDeviation="1" result="effect1_foregroundBlur_1417_22447"/>
</filter>
<clipPath id="clip0_1417_22447">
<rect width="32" height="32" fill="white" transform="translate(0 2)"/>
</clipPath>
<clipPath id="clip1_1417_22447">
<rect width="32" height="32" fill="white" transform="translate(0 2)"/>
</clipPath>
<clipPath id="clip2_1417_22447">
<rect width="32" height="32" fill="white" transform="translate(0 2)"/>
</clipPath>
</defs>
</svg>
