<svg width="36" height="37" viewBox="0 0 36 37" fill="none" xmlns="http://www.w3.org/2000/svg">
<g filter="url(#filter0_f_1417_22440)">
<path d="M31.0723 22.8284C31.0815 22.6178 31.0259 22.4095 30.913 22.2315C30.8002 22.0535 30.6355 21.9144 30.4412 21.8328L28.9479 21.3884C28.8679 21.175 28.7879 20.9617 28.6901 20.7573L29.3834 19.4773C29.4875 19.2812 29.5256 19.0568 29.492 18.8374C29.4583 18.618 29.3548 18.4153 29.1967 18.2595L27.9345 17.0062C27.7776 16.8496 27.5744 16.7477 27.3551 16.7157C27.1357 16.6836 26.9119 16.7232 26.7167 16.8284L25.4279 17.5039C25.2078 17.3973 24.9823 17.3024 24.7523 17.2195L24.3256 15.815C24.2544 15.6115 24.1206 15.4356 23.9434 15.3127C23.7662 15.1897 23.5546 15.126 23.339 15.1306H21.5612C21.3404 15.1304 21.1253 15.2011 20.9477 15.3324C20.7701 15.4636 20.6393 15.6484 20.5745 15.8595L20.1567 17.2284C19.9237 17.3109 19.6952 17.4058 19.4723 17.5128L18.2101 16.8373C18.0159 16.7342 17.7939 16.6958 17.5765 16.7278C17.359 16.7598 17.1574 16.8604 17.0012 17.015L15.7123 18.2595C15.5523 18.416 15.4475 18.6203 15.4138 18.8416C15.3801 19.0629 15.4194 19.2891 15.5256 19.4862L16.1834 20.6684C16.0801 20.8827 15.9881 21.1022 15.9079 21.3262L14.5034 21.7439C14.2899 21.8058 14.1023 21.9356 13.9692 22.1136C13.836 22.2917 13.7646 22.5083 13.7656 22.7306V24.5084C13.7665 24.7292 13.8389 24.9438 13.9719 25.12C14.1048 25.2963 14.2913 25.4247 14.5034 25.4862L15.9167 25.9039C15.9974 26.1219 16.0894 26.3355 16.1923 26.5439L15.499 27.8417C15.3949 28.0377 15.3568 28.2621 15.3904 28.4815C15.4241 28.7009 15.5276 28.9036 15.6856 29.0595L16.9479 30.3039C17.1037 30.462 17.3064 30.5655 17.5258 30.5991C17.7452 30.6328 17.9696 30.5947 18.1656 30.4906L19.4812 29.7973C19.6856 29.895 19.899 29.975 20.1212 30.055L20.5567 31.495C20.623 31.7045 20.7545 31.8873 20.932 32.0169C21.1095 32.1464 21.3237 32.2158 21.5434 32.215H23.3212C23.542 32.2152 23.7571 32.1445 23.9347 32.0133C24.1123 31.8821 24.2431 31.6973 24.3079 31.4862L24.7256 30.0817C24.939 30.0106 25.1434 29.9217 25.3479 29.8239L26.6812 30.5262C26.8753 30.6292 27.0973 30.6676 27.3148 30.6356C27.5323 30.6036 27.7338 30.503 27.8901 30.3484L29.1523 29.1039C29.3124 28.9474 29.4171 28.7431 29.4508 28.5218C29.4845 28.3005 29.4452 28.0743 29.339 27.8773L28.6367 26.5884C28.7316 26.3869 28.8175 26.1825 28.8945 25.975L30.3345 25.5573C30.5481 25.4954 30.7356 25.3656 30.8688 25.1876C31.0019 25.0095 31.0734 24.7929 31.0723 24.5706V22.8284ZM29.6501 24.2773L27.7745 24.8284L27.6679 25.2017C27.5582 25.5693 27.4092 25.9239 27.2234 26.2595L27.0367 26.5973L27.9256 28.295L27.0367 29.1839L25.259 28.295L24.9301 28.4728C24.5907 28.6548 24.2332 28.8008 23.8634 28.9084L23.4901 29.015L22.9301 30.8728H21.819L21.259 29.0239L20.8856 28.9173C20.5129 28.8102 20.1524 28.6642 19.8101 28.4817L19.4812 28.3039L17.7567 29.1928L16.8679 28.3039L17.7567 26.5795L17.5612 26.2417C17.3828 25.882 17.2457 25.5033 17.1523 25.1128L17.0012 24.7839L15.2234 24.2239V23.0595L17.0012 22.5173L17.1167 22.1528C17.2321 21.7718 17.3901 21.405 17.5879 21.0595L17.8012 20.6684L16.9123 19.0239L17.8012 18.1884L19.4812 19.0773L19.819 18.8906C20.1743 18.696 20.5499 18.541 20.939 18.4284L21.3034 18.3217L21.8634 16.5439H23.0901L23.6412 18.3217L24.0056 18.4284C24.3826 18.5433 24.7461 18.6983 25.0901 18.8906L25.4279 19.0773L27.1345 18.1884L28.0234 19.0773L27.1345 20.7573L27.3212 21.095C27.5076 21.4365 27.6566 21.7971 27.7656 22.1706L27.8723 22.5439L29.7034 23.0862L29.6501 24.2773Z" fill="white"/>
<path d="M22.4405 20.0889C21.7405 20.1029 21.0602 20.3233 20.4849 20.7224C19.9096 21.1215 19.465 21.6816 19.2067 22.3324C18.9485 22.9832 18.8881 23.6957 19.0333 24.3807C19.1784 25.0656 19.5225 25.6925 20.0225 26.1827C20.5224 26.6728 21.156 27.0045 21.8437 27.136C22.5314 27.2675 23.2426 27.1931 23.8882 26.922C24.5337 26.6509 25.0849 26.1953 25.4725 25.6122C25.8602 25.0292 26.067 24.3446 26.0672 23.6445C26.0531 22.6935 25.6643 21.7866 24.9852 21.1207C24.306 20.4549 23.3915 20.0841 22.4405 20.0889ZM22.4405 25.8311C22.0153 25.8224 21.6021 25.6883 21.2528 25.4457C20.9035 25.2031 20.6336 24.8628 20.4769 24.4674C20.3202 24.072 20.2837 23.6392 20.372 23.2232C20.4603 22.8071 20.6695 22.4264 20.9732 22.1288C21.277 21.8311 21.6619 21.6298 22.0796 21.55C22.4974 21.4702 22.9294 21.5154 23.3215 21.6802C23.7136 21.8449 24.0483 22.1217 24.2838 22.4759C24.5192 22.83 24.6449 23.2458 24.6449 23.6711C24.6426 23.9583 24.5838 24.2422 24.4717 24.5066C24.3597 24.771 24.1966 25.0108 23.9919 25.2122C23.7872 25.4136 23.5449 25.5727 23.2787 25.6804C23.0125 25.7881 22.7277 25.8424 22.4405 25.84V25.8311Z" fill="white"/>
<path d="M13.8791 29.5554H6.33247V6.44428H24.1102V13.4576C24.4982 13.5715 24.8574 13.7667 25.164 14.0304C25.4706 14.294 25.7174 14.62 25.888 14.9865V6.44428C25.888 5.97279 25.7007 5.5206 25.3673 5.1872C25.0339 4.8538 24.5817 4.6665 24.1102 4.6665H6.33247C5.86097 4.6665 5.40878 4.8538 5.07539 5.1872C4.74199 5.5206 4.55469 5.97279 4.55469 6.44428V29.5554C4.55469 30.0269 4.74199 30.4791 5.07539 30.8125C5.40878 31.1459 5.86097 31.3332 6.33247 31.3332H15.4258L14.448 30.3732C14.2104 30.1373 14.0177 29.8602 13.8791 29.5554Z" fill="white"/>
</g>
<g filter="url(#filter1_f_1417_22440)">
<path d="M31.0723 22.8284C31.0815 22.6178 31.0259 22.4095 30.913 22.2315C30.8002 22.0535 30.6355 21.9144 30.4412 21.8328L28.9479 21.3884C28.8679 21.175 28.7879 20.9617 28.6901 20.7573L29.3834 19.4773C29.4875 19.2812 29.5256 19.0568 29.492 18.8374C29.4583 18.618 29.3548 18.4153 29.1967 18.2595L27.9345 17.0062C27.7776 16.8496 27.5744 16.7477 27.3551 16.7157C27.1357 16.6836 26.9119 16.7232 26.7167 16.8284L25.4279 17.5039C25.2078 17.3973 24.9823 17.3024 24.7523 17.2195L24.3256 15.815C24.2544 15.6115 24.1206 15.4356 23.9434 15.3127C23.7662 15.1897 23.5546 15.126 23.339 15.1306H21.5612C21.3404 15.1304 21.1253 15.2011 20.9477 15.3324C20.7701 15.4636 20.6393 15.6484 20.5745 15.8595L20.1567 17.2284C19.9237 17.3109 19.6952 17.4058 19.4723 17.5128L18.2101 16.8373C18.0159 16.7342 17.7939 16.6958 17.5765 16.7278C17.359 16.7598 17.1574 16.8604 17.0012 17.015L15.7123 18.2595C15.5523 18.416 15.4475 18.6203 15.4138 18.8416C15.3801 19.0629 15.4194 19.2891 15.5256 19.4862L16.1834 20.6684C16.0801 20.8827 15.9881 21.1022 15.9079 21.3262L14.5034 21.7439C14.2899 21.8058 14.1023 21.9356 13.9692 22.1136C13.836 22.2917 13.7646 22.5083 13.7656 22.7306V24.5084C13.7665 24.7292 13.8389 24.9438 13.9719 25.12C14.1048 25.2963 14.2913 25.4247 14.5034 25.4862L15.9167 25.9039C15.9974 26.1219 16.0894 26.3355 16.1923 26.5439L15.499 27.8417C15.3949 28.0377 15.3568 28.2621 15.3904 28.4815C15.4241 28.7009 15.5276 28.9036 15.6856 29.0595L16.9479 30.3039C17.1037 30.462 17.3064 30.5655 17.5258 30.5991C17.7452 30.6328 17.9696 30.5947 18.1656 30.4906L19.4812 29.7973C19.6856 29.895 19.899 29.975 20.1212 30.055L20.5567 31.495C20.623 31.7045 20.7545 31.8873 20.932 32.0169C21.1095 32.1464 21.3237 32.2158 21.5434 32.215H23.3212C23.542 32.2152 23.7571 32.1445 23.9347 32.0133C24.1123 31.8821 24.2431 31.6973 24.3079 31.4862L24.7256 30.0817C24.939 30.0106 25.1434 29.9217 25.3479 29.8239L26.6812 30.5262C26.8753 30.6292 27.0973 30.6676 27.3148 30.6356C27.5323 30.6036 27.7338 30.503 27.8901 30.3484L29.1523 29.1039C29.3124 28.9474 29.4171 28.7431 29.4508 28.5218C29.4845 28.3005 29.4452 28.0743 29.339 27.8773L28.6367 26.5884C28.7316 26.3869 28.8175 26.1825 28.8945 25.975L30.3345 25.5573C30.5481 25.4954 30.7356 25.3656 30.8688 25.1876C31.0019 25.0095 31.0734 24.7929 31.0723 24.5706V22.8284ZM29.6501 24.2773L27.7745 24.8284L27.6679 25.2017C27.5582 25.5693 27.4092 25.9239 27.2234 26.2595L27.0367 26.5973L27.9256 28.295L27.0367 29.1839L25.259 28.295L24.9301 28.4728C24.5907 28.6548 24.2332 28.8008 23.8634 28.9084L23.4901 29.015L22.9301 30.8728H21.819L21.259 29.0239L20.8856 28.9173C20.5129 28.8102 20.1524 28.6642 19.8101 28.4817L19.4812 28.3039L17.7567 29.1928L16.8679 28.3039L17.7567 26.5795L17.5612 26.2417C17.3828 25.882 17.2457 25.5033 17.1523 25.1128L17.0012 24.7839L15.2234 24.2239V23.0595L17.0012 22.5173L17.1167 22.1528C17.2321 21.7718 17.3901 21.405 17.5879 21.0595L17.8012 20.6684L16.9123 19.0239L17.8012 18.1884L19.4812 19.0773L19.819 18.8906C20.1743 18.696 20.5499 18.541 20.939 18.4284L21.3034 18.3217L21.8634 16.5439H23.0901L23.6412 18.3217L24.0056 18.4284C24.3826 18.5433 24.7461 18.6983 25.0901 18.8906L25.4279 19.0773L27.1345 18.1884L28.0234 19.0773L27.1345 20.7573L27.3212 21.095C27.5076 21.4365 27.6566 21.7971 27.7656 22.1706L27.8723 22.5439L29.7034 23.0862L29.6501 24.2773Z" fill="white"/>
<path d="M22.4405 20.0889C21.7405 20.1029 21.0602 20.3233 20.4849 20.7224C19.9096 21.1215 19.465 21.6816 19.2067 22.3324C18.9485 22.9832 18.8881 23.6957 19.0333 24.3807C19.1784 25.0656 19.5225 25.6925 20.0225 26.1827C20.5224 26.6728 21.156 27.0045 21.8437 27.136C22.5314 27.2675 23.2426 27.1931 23.8882 26.922C24.5337 26.6509 25.0849 26.1953 25.4725 25.6122C25.8602 25.0292 26.067 24.3446 26.0672 23.6445C26.0531 22.6935 25.6643 21.7866 24.9852 21.1207C24.306 20.4549 23.3915 20.0841 22.4405 20.0889ZM22.4405 25.8311C22.0153 25.8224 21.6021 25.6883 21.2528 25.4457C20.9035 25.2031 20.6336 24.8628 20.4769 24.4674C20.3202 24.072 20.2837 23.6392 20.372 23.2232C20.4603 22.8071 20.6695 22.4264 20.9732 22.1288C21.277 21.8311 21.6619 21.6298 22.0796 21.55C22.4974 21.4702 22.9294 21.5154 23.3215 21.6802C23.7136 21.8449 24.0483 22.1217 24.2838 22.4759C24.5192 22.83 24.6449 23.2458 24.6449 23.6711C24.6426 23.9583 24.5838 24.2422 24.4717 24.5066C24.3597 24.771 24.1966 25.0108 23.9919 25.2122C23.7872 25.4136 23.5449 25.5727 23.2787 25.6804C23.0125 25.7881 22.7277 25.8424 22.4405 25.84V25.8311Z" fill="white"/>
<path d="M13.8791 29.5554H6.33247V6.44428H24.1102V13.4576C24.4982 13.5715 24.8574 13.7667 25.164 14.0304C25.4706 14.294 25.7174 14.62 25.888 14.9865V6.44428C25.888 5.97279 25.7007 5.5206 25.3673 5.1872C25.0339 4.8538 24.5817 4.6665 24.1102 4.6665H6.33247C5.86097 4.6665 5.40878 4.8538 5.07539 5.1872C4.74199 5.5206 4.55469 5.97279 4.55469 6.44428V29.5554C4.55469 30.0269 4.74199 30.4791 5.07539 30.8125C5.40878 31.1459 5.86097 31.3332 6.33247 31.3332H15.4258L14.448 30.3732C14.2104 30.1373 14.0177 29.8602 13.8791 29.5554Z" fill="white"/>
</g>
<path d="M31.0723 22.8284C31.0815 22.6178 31.0259 22.4095 30.913 22.2315C30.8002 22.0535 30.6355 21.9144 30.4412 21.8328L28.9479 21.3884C28.8679 21.175 28.7879 20.9617 28.6901 20.7573L29.3834 19.4773C29.4875 19.2812 29.5256 19.0568 29.492 18.8374C29.4583 18.618 29.3548 18.4153 29.1967 18.2595L27.9345 17.0062C27.7776 16.8496 27.5744 16.7477 27.3551 16.7157C27.1357 16.6836 26.9119 16.7232 26.7167 16.8284L25.4279 17.5039C25.2078 17.3973 24.9823 17.3024 24.7523 17.2195L24.3256 15.815C24.2544 15.6115 24.1206 15.4356 23.9434 15.3127C23.7662 15.1897 23.5546 15.126 23.339 15.1306H21.5612C21.3404 15.1304 21.1253 15.2011 20.9477 15.3324C20.7701 15.4636 20.6393 15.6484 20.5745 15.8595L20.1567 17.2284C19.9237 17.3109 19.6952 17.4058 19.4723 17.5128L18.2101 16.8373C18.0159 16.7342 17.7939 16.6958 17.5765 16.7278C17.359 16.7598 17.1574 16.8604 17.0012 17.015L15.7123 18.2595C15.5523 18.416 15.4475 18.6203 15.4138 18.8416C15.3801 19.0629 15.4194 19.2891 15.5256 19.4862L16.1834 20.6684C16.0801 20.8827 15.9881 21.1022 15.9079 21.3262L14.5034 21.7439C14.2899 21.8058 14.1023 21.9356 13.9692 22.1136C13.836 22.2917 13.7646 22.5083 13.7656 22.7306V24.5084C13.7665 24.7292 13.8389 24.9438 13.9719 25.12C14.1048 25.2963 14.2913 25.4247 14.5034 25.4862L15.9167 25.9039C15.9974 26.1219 16.0894 26.3355 16.1923 26.5439L15.499 27.8417C15.3949 28.0377 15.3568 28.2621 15.3904 28.4815C15.4241 28.7009 15.5276 28.9036 15.6856 29.0595L16.9479 30.3039C17.1037 30.462 17.3064 30.5655 17.5258 30.5991C17.7452 30.6328 17.9696 30.5947 18.1656 30.4906L19.4812 29.7973C19.6856 29.895 19.899 29.975 20.1212 30.055L20.5567 31.495C20.623 31.7045 20.7545 31.8873 20.932 32.0169C21.1095 32.1464 21.3237 32.2158 21.5434 32.215H23.3212C23.542 32.2152 23.7571 32.1445 23.9347 32.0133C24.1123 31.8821 24.2431 31.6973 24.3079 31.4862L24.7256 30.0817C24.939 30.0106 25.1434 29.9217 25.3479 29.8239L26.6812 30.5262C26.8753 30.6292 27.0973 30.6676 27.3148 30.6356C27.5323 30.6036 27.7338 30.503 27.8901 30.3484L29.1523 29.1039C29.3124 28.9474 29.4171 28.7431 29.4508 28.5218C29.4845 28.3005 29.4452 28.0743 29.339 27.8773L28.6367 26.5884C28.7316 26.3869 28.8175 26.1825 28.8945 25.975L30.3345 25.5573C30.5481 25.4954 30.7356 25.3656 30.8688 25.1876C31.0019 25.0095 31.0734 24.7929 31.0723 24.5706V22.8284ZM29.6501 24.2773L27.7745 24.8284L27.6679 25.2017C27.5582 25.5693 27.4092 25.9239 27.2234 26.2595L27.0367 26.5973L27.9256 28.295L27.0367 29.1839L25.259 28.295L24.9301 28.4728C24.5907 28.6548 24.2332 28.8008 23.8634 28.9084L23.4901 29.015L22.9301 30.8728H21.819L21.259 29.0239L20.8856 28.9173C20.5129 28.8102 20.1524 28.6642 19.8101 28.4817L19.4812 28.3039L17.7567 29.1928L16.8679 28.3039L17.7567 26.5795L17.5612 26.2417C17.3828 25.882 17.2457 25.5033 17.1523 25.1128L17.0012 24.7839L15.2234 24.2239V23.0595L17.0012 22.5173L17.1167 22.1528C17.2321 21.7718 17.3901 21.405 17.5879 21.0595L17.8012 20.6684L16.9123 19.0239L17.8012 18.1884L19.4812 19.0773L19.819 18.8906C20.1743 18.696 20.5499 18.541 20.939 18.4284L21.3034 18.3217L21.8634 16.5439H23.0901L23.6412 18.3217L24.0056 18.4284C24.3826 18.5433 24.7461 18.6983 25.0901 18.8906L25.4279 19.0773L27.1345 18.1884L28.0234 19.0773L27.1345 20.7573L27.3212 21.095C27.5076 21.4365 27.6566 21.7971 27.7656 22.1706L27.8723 22.5439L29.7034 23.0862L29.6501 24.2773Z" fill="white"/>
<path d="M22.4405 20.0889C21.7405 20.1029 21.0602 20.3233 20.4849 20.7224C19.9096 21.1215 19.465 21.6816 19.2067 22.3324C18.9485 22.9832 18.8881 23.6957 19.0333 24.3807C19.1784 25.0656 19.5225 25.6925 20.0225 26.1827C20.5224 26.6728 21.156 27.0045 21.8437 27.136C22.5314 27.2675 23.2426 27.1931 23.8882 26.922C24.5337 26.6509 25.0849 26.1953 25.4725 25.6122C25.8602 25.0292 26.067 24.3446 26.0672 23.6445C26.0531 22.6935 25.6643 21.7866 24.9852 21.1207C24.306 20.4549 23.3915 20.0841 22.4405 20.0889ZM22.4405 25.8311C22.0153 25.8224 21.6021 25.6883 21.2528 25.4457C20.9035 25.2031 20.6336 24.8628 20.4769 24.4674C20.3202 24.072 20.2837 23.6392 20.372 23.2232C20.4603 22.8071 20.6695 22.4264 20.9732 22.1288C21.277 21.8311 21.6619 21.6298 22.0796 21.55C22.4974 21.4702 22.9294 21.5154 23.3215 21.6802C23.7136 21.8449 24.0483 22.1217 24.2838 22.4759C24.5192 22.83 24.6449 23.2458 24.6449 23.6711C24.6426 23.9583 24.5838 24.2422 24.4717 24.5066C24.3597 24.771 24.1966 25.0108 23.9919 25.2122C23.7872 25.4136 23.5449 25.5727 23.2787 25.6804C23.0125 25.7881 22.7277 25.8424 22.4405 25.84V25.8311Z" fill="white"/>
<path d="M13.8791 29.5554H6.33247V6.44428H24.1102V13.4576C24.4982 13.5715 24.8574 13.7667 25.164 14.0304C25.4706 14.294 25.7174 14.62 25.888 14.9865V6.44428C25.888 5.97279 25.7007 5.5206 25.3673 5.1872C25.0339 4.8538 24.5817 4.6665 24.1102 4.6665H6.33247C5.86097 4.6665 5.40878 4.8538 5.07539 5.1872C4.74199 5.5206 4.55469 5.97279 4.55469 6.44428V29.5554C4.55469 30.0269 4.74199 30.4791 5.07539 30.8125C5.40878 31.1459 5.86097 31.3332 6.33247 31.3332H15.4258L14.448 30.3732C14.2104 30.1373 14.0177 29.8602 13.8791 29.5554Z" fill="white"/>
<defs>
<filter id="filter0_f_1417_22440" x="-3" y="-2" width="40" height="40" filterUnits="userSpaceOnUse" color-interpolation-filters="sRGB">
<feFlood flood-opacity="0" result="BackgroundImageFix"/>
<feBlend mode="normal" in="SourceGraphic" in2="BackgroundImageFix" result="shape"/>
<feGaussianBlur stdDeviation="2" result="effect1_foregroundBlur_1417_22440"/>
</filter>
<filter id="filter1_f_1417_22440" x="-1" y="0" width="36" height="36" filterUnits="userSpaceOnUse" color-interpolation-filters="sRGB">
<feFlood flood-opacity="0" result="BackgroundImageFix"/>
<feBlend mode="normal" in="SourceGraphic" in2="BackgroundImageFix" result="shape"/>
<feGaussianBlur stdDeviation="1" result="effect1_foregroundBlur_1417_22440"/>
</filter>
</defs>
</svg>
