<svg width="32" height="32" viewBox="0 0 32 32" fill="none" xmlns="http://www.w3.org/2000/svg">
<path d="M9.80273 4C8.93109 4.00002 8.08383 4.28773 7.3924 4.81847C6.70098 5.34921 6.20405 6.09332 5.97873 6.93533L4.79673 11.3507C4.9174 11.3393 5.04006 11.3333 5.1634 11.3333H6.52673L7.58873 7.366C7.71919 6.87864 8.00681 6.44794 8.40699 6.14069C8.80717 5.83345 9.29754 5.66682 9.80206 5.66667H22.1934C22.6979 5.66682 23.1883 5.83345 23.5885 6.14069C23.9886 6.44794 24.2763 6.87864 24.4067 7.366L27.5774 19.2127C27.6756 19.5801 27.6881 19.9651 27.6137 20.3381C27.5394 20.7111 27.3803 21.062 27.1487 21.3636C26.9171 21.6653 26.6192 21.9096 26.2781 22.0778C25.9369 22.2459 25.5617 22.3334 25.1814 22.3333H13.9974V24H25.1814C27.9081 24 29.8921 21.4147 29.1881 18.7813L26.0174 6.93467C25.7919 6.09278 25.295 5.34882 24.6036 4.81821C23.9121 4.28759 23.0649 3.99999 22.1934 4H9.80273ZM23.1641 27H13.9941C13.9961 26.9447 13.9974 26.8893 13.9974 26.8333V25.3333H23.1647C23.3857 25.3333 23.5977 25.4211 23.754 25.5774C23.9103 25.7337 23.9981 25.9457 23.9981 26.1667C23.9981 26.3877 23.9103 26.5996 23.754 26.7559C23.5977 26.9122 23.3857 27 23.1647 27H23.1641ZM7.66473 19.3333C8.10676 19.3333 8.53068 19.1577 8.84324 18.8452C9.1558 18.5326 9.3314 18.1087 9.3314 17.6667C9.3314 17.2246 9.1558 16.8007 8.84324 16.4882C8.53068 16.1756 8.10676 16 7.66473 16C7.2227 16 6.79878 16.1756 6.48622 16.4882C6.17366 16.8007 5.99806 17.2246 5.99806 17.6667C5.99806 18.1087 6.17366 18.5326 6.48622 18.8452C6.79878 19.1577 7.2227 19.3333 7.66473 19.3333ZM2.66406 15.1667C2.66406 14.5036 2.92745 13.8677 3.3963 13.3989C3.86514 12.9301 4.50102 12.6667 5.16406 12.6667H10.1641C10.8271 12.6667 11.463 12.9301 11.9318 13.3989C12.4007 13.8677 12.6641 14.5036 12.6641 15.1667V26.8333C12.6641 27.4964 12.4007 28.1323 11.9318 28.6011C11.463 29.0699 10.8271 29.3333 10.1641 29.3333H5.16406C4.50102 29.3333 3.86514 29.0699 3.3963 28.6011C2.92745 28.1323 2.66406 27.4964 2.66406 26.8333V15.1667ZM5.16406 14.3333C4.70406 14.3333 4.33073 14.7067 4.33073 15.1667V26.8333C4.33073 27.2933 4.70406 27.6667 5.16406 27.6667H10.1641C10.6241 27.6667 10.9974 27.2933 10.9974 26.8333V15.1667C10.9974 14.7067 10.6241 14.3333 10.1641 14.3333H5.16406Z" fill="black"/>
</svg>
