<svg width="32" height="32" viewBox="0 0 32 32" fill="none" xmlns="http://www.w3.org/2000/svg">
<path fill-rule="evenodd" clip-rule="evenodd" d="M15.9974 28.0013C20.4394 28.0013 23.9974 24.4746 23.9974 20.1766C23.9974 16.6053 21.8787 12.5193 19.5674 9.1753C18.4684 7.59235 17.2763 6.07612 15.9974 4.63464C14.7185 6.07612 13.5264 7.59235 12.4274 9.1753C10.1161 12.5193 7.9974 16.6053 7.9974 20.1766C7.9974 24.474 11.5554 28.0013 15.9974 28.0013ZM15.0907 3.64797C12.7454 6.27397 6.66406 13.708 6.66406 20.1766C6.66406 25.2346 10.8427 29.3346 15.9974 29.3346C21.1521 29.3346 25.3307 25.2346 25.3307 20.1766C25.3307 13.708 19.2494 6.27397 16.9041 3.64797C16.3441 3.0213 15.9974 2.66797 15.9974 2.66797C15.9974 2.66797 15.6507 3.0213 15.0907 3.64797Z" fill="black"/>
</svg>
