<svg width="24" height="24" viewBox="0 0 24 24" fill="none" xmlns="http://www.w3.org/2000/svg">
<path d="M20.5418 3.35031C20.3573 3.17769 20.1339 3.0635 19.8954 3.01986C19.6569 2.97623 19.4121 3.00479 19.1871 3.1025L3.84559 9.75659C3.57651 9.86981 3.34858 10.0776 3.19691 10.3479C3.04524 10.6182 2.97823 10.9361 3.00622 11.2526C3.03118 11.569 3.14834 11.8679 3.34013 12.1045C3.53192 12.3412 3.78801 12.5028 4.06998 12.5651L7.9677 13.4186V18.797C7.96756 19.0879 8.04569 19.3724 8.19217 19.6142C8.33865 19.8561 8.54689 20.0444 8.79045 20.1553C8.95165 20.227 9.12365 20.2644 9.29741 20.2655C9.47205 20.2662 9.64506 20.2284 9.80631 20.1543C9.96757 20.0802 10.1138 19.9714 10.2365 19.8341L12.3973 17.457L15.6634 20.6326C15.9045 20.8675 16.2145 20.9979 16.536 20.9997C16.6774 21.0029 16.8181 20.9781 16.9515 20.9263C17.1709 20.8497 17.3683 20.7111 17.5242 20.5244C17.6802 20.3377 17.7893 20.1092 17.8408 19.8616L20.9656 4.79126C21.0202 4.53122 21.0096 4.25965 20.9349 4.00576C20.8603 3.75187 20.7243 3.52526 20.5418 3.35031ZM8.47465 12.0328L4.33593 11.1241L15.9376 6.08537L8.47465 12.0328ZM9.29741 18.797V14.4466L11.3917 16.4841L9.29741 18.797ZM16.5443 19.5312L9.69632 12.8771L19.5611 5.01153L16.5443 19.5312Z" fill="white"/>
</svg>
