<svg width="40" height="36" viewBox="0 0 40 36" fill="none" xmlns="http://www.w3.org/2000/svg">
<g clip-path="url(#clip0_1417_22341)" filter="url(#filter0_f_1417_22341)">
<path d="M29 6C27.6739 6 26.4021 6.52679 25.4645 7.46447C24.5268 8.40215 24 9.67392 24 11C24 11.2652 23.8946 11.5196 23.7071 11.7071C23.5196 11.8946 23.2652 12 23 12C22.7348 12 22.4804 11.8946 22.2929 11.7071C22.1054 11.5196 22 11.2652 22 11C22 9.61553 22.4105 8.26216 23.1797 7.11101C23.9489 5.95987 25.0421 5.06266 26.3212 4.53285C27.6003 4.00303 29.0078 3.86441 30.3656 4.13451C31.7235 4.4046 32.9708 5.07129 33.9497 6.05026C34.9287 7.02922 35.5954 8.2765 35.8655 9.63437C36.1356 10.9922 35.997 12.3997 35.4672 13.6788C34.9373 14.9579 34.0401 16.0511 32.889 16.8203C31.7378 17.5895 30.3845 18 29 18H5C4.73478 18 4.48043 17.8946 4.29289 17.7071C4.10536 17.5196 4 17.2652 4 17C4 16.7348 4.10536 16.4804 4.29289 16.2929C4.48043 16.1054 4.73478 16 5 16H29C30.3261 16 31.5979 15.4732 32.5355 14.5355C33.4732 13.5979 34 12.3261 34 11C34 9.67392 33.4732 8.40215 32.5355 7.46447C31.5979 6.52679 30.3261 6 29 6ZM15 8C14.4696 8 13.9609 8.21072 13.5858 8.58579C13.2107 8.96086 13 9.46957 13 10C13 10.2652 12.8946 10.5196 12.7071 10.7071C12.5196 10.8946 12.2652 11 12 11C11.7348 11 11.4804 10.8946 11.2929 10.7071C11.1054 10.5196 11 10.2652 11 10C11 9.20888 11.2346 8.43552 11.6741 7.77772C12.1136 7.11993 12.7384 6.60724 13.4693 6.30449C14.2002 6.00173 15.0044 5.92252 15.7804 6.07686C16.5563 6.2312 17.269 6.61217 17.8284 7.17158C18.3878 7.73099 18.7688 8.44372 18.9231 9.21964C19.0775 9.99557 18.9983 10.7998 18.6955 11.5307C18.3928 12.2616 17.8801 12.8864 17.2223 13.3259C16.5645 13.7654 15.7911 14 15 14H5C4.73478 14 4.48043 13.8946 4.29289 13.7071C4.10536 13.5196 4 13.2652 4 13C4 12.7348 4.10536 12.4804 4.29289 12.2929C4.48043 12.1054 4.73478 12 5 12H15C15.5304 12 16.0391 11.7893 16.4142 11.4142C16.7893 11.0391 17 10.5304 17 10C17 9.46957 16.7893 8.96086 16.4142 8.58579C16.0391 8.21072 15.5304 8 15 8ZM4 21C4 20.7348 4.10536 20.4804 4.29289 20.2929C4.48043 20.1054 4.73478 20 5 20H25.084C26.2707 20 27.4307 20.3519 28.4174 21.0112C29.4041 21.6705 30.1732 22.6075 30.6273 23.7039C31.0814 24.8003 31.2002 26.0067 30.9687 27.1705C30.7372 28.3344 30.1658 29.4035 29.3266 30.2426C28.4875 31.0818 27.4184 31.6532 26.2545 31.8847C25.0907 32.1162 23.8843 31.9974 22.7879 31.5433C21.6915 31.0892 20.7545 30.3201 20.0952 29.3334C19.4359 28.3467 19.084 27.1867 19.084 26C19.084 25.7348 19.1894 25.4804 19.3769 25.2929C19.5644 25.1054 19.8188 25 20.084 25C20.3492 25 20.6036 25.1054 20.7911 25.2929C20.9786 25.4804 21.084 25.7348 21.084 26C21.084 26.7911 21.3186 27.5645 21.7581 28.2223C22.1976 28.8801 22.8224 29.3928 23.5533 29.6955C24.2842 29.9983 25.0884 30.0775 25.8644 29.9231C26.6403 29.7688 27.353 29.3878 27.9124 28.8284C28.4718 28.269 28.8528 27.5563 29.0071 26.7804C29.1615 26.0044 29.0823 25.2002 28.7795 24.4693C28.4768 23.7384 27.9641 23.1137 27.3063 22.6741C26.6485 22.2346 25.8751 22 25.084 22H5C4.73478 22 4.48043 21.8946 4.29289 21.7071C4.10536 21.5196 4 21.2652 4 21Z" fill="white"/>
</g>
<g clip-path="url(#clip1_1417_22341)" filter="url(#filter1_f_1417_22341)">
<path d="M29 6C27.6739 6 26.4021 6.52679 25.4645 7.46447C24.5268 8.40215 24 9.67392 24 11C24 11.2652 23.8946 11.5196 23.7071 11.7071C23.5196 11.8946 23.2652 12 23 12C22.7348 12 22.4804 11.8946 22.2929 11.7071C22.1054 11.5196 22 11.2652 22 11C22 9.61553 22.4105 8.26216 23.1797 7.11101C23.9489 5.95987 25.0421 5.06266 26.3212 4.53285C27.6003 4.00303 29.0078 3.86441 30.3656 4.13451C31.7235 4.4046 32.9708 5.07129 33.9497 6.05026C34.9287 7.02922 35.5954 8.2765 35.8655 9.63437C36.1356 10.9922 35.997 12.3997 35.4672 13.6788C34.9373 14.9579 34.0401 16.0511 32.889 16.8203C31.7378 17.5895 30.3845 18 29 18H5C4.73478 18 4.48043 17.8946 4.29289 17.7071C4.10536 17.5196 4 17.2652 4 17C4 16.7348 4.10536 16.4804 4.29289 16.2929C4.48043 16.1054 4.73478 16 5 16H29C30.3261 16 31.5979 15.4732 32.5355 14.5355C33.4732 13.5979 34 12.3261 34 11C34 9.67392 33.4732 8.40215 32.5355 7.46447C31.5979 6.52679 30.3261 6 29 6ZM15 8C14.4696 8 13.9609 8.21072 13.5858 8.58579C13.2107 8.96086 13 9.46957 13 10C13 10.2652 12.8946 10.5196 12.7071 10.7071C12.5196 10.8946 12.2652 11 12 11C11.7348 11 11.4804 10.8946 11.2929 10.7071C11.1054 10.5196 11 10.2652 11 10C11 9.20888 11.2346 8.43552 11.6741 7.77772C12.1136 7.11993 12.7384 6.60724 13.4693 6.30449C14.2002 6.00173 15.0044 5.92252 15.7804 6.07686C16.5563 6.2312 17.269 6.61217 17.8284 7.17158C18.3878 7.73099 18.7688 8.44372 18.9231 9.21964C19.0775 9.99557 18.9983 10.7998 18.6955 11.5307C18.3928 12.2616 17.8801 12.8864 17.2223 13.3259C16.5645 13.7654 15.7911 14 15 14H5C4.73478 14 4.48043 13.8946 4.29289 13.7071C4.10536 13.5196 4 13.2652 4 13C4 12.7348 4.10536 12.4804 4.29289 12.2929C4.48043 12.1054 4.73478 12 5 12H15C15.5304 12 16.0391 11.7893 16.4142 11.4142C16.7893 11.0391 17 10.5304 17 10C17 9.46957 16.7893 8.96086 16.4142 8.58579C16.0391 8.21072 15.5304 8 15 8ZM4 21C4 20.7348 4.10536 20.4804 4.29289 20.2929C4.48043 20.1054 4.73478 20 5 20H25.084C26.2707 20 27.4307 20.3519 28.4174 21.0112C29.4041 21.6705 30.1732 22.6075 30.6273 23.7039C31.0814 24.8003 31.2002 26.0067 30.9687 27.1705C30.7372 28.3344 30.1658 29.4035 29.3266 30.2426C28.4875 31.0818 27.4184 31.6532 26.2545 31.8847C25.0907 32.1162 23.8843 31.9974 22.7879 31.5433C21.6915 31.0892 20.7545 30.3201 20.0952 29.3334C19.4359 28.3467 19.084 27.1867 19.084 26C19.084 25.7348 19.1894 25.4804 19.3769 25.2929C19.5644 25.1054 19.8188 25 20.084 25C20.3492 25 20.6036 25.1054 20.7911 25.2929C20.9786 25.4804 21.084 25.7348 21.084 26C21.084 26.7911 21.3186 27.5645 21.7581 28.2223C22.1976 28.8801 22.8224 29.3928 23.5533 29.6955C24.2842 29.9983 25.0884 30.0775 25.8644 29.9231C26.6403 29.7688 27.353 29.3878 27.9124 28.8284C28.4718 28.269 28.8528 27.5563 29.0071 26.7804C29.1615 26.0044 29.0823 25.2002 28.7795 24.4693C28.4768 23.7384 27.9641 23.1137 27.3063 22.6741C26.6485 22.2346 25.8751 22 25.084 22H5C4.73478 22 4.48043 21.8946 4.29289 21.7071C4.10536 21.5196 4 21.2652 4 21Z" fill="white"/>
</g>
<g clip-path="url(#clip2_1417_22341)">
<path d="M29 6C27.6739 6 26.4021 6.52679 25.4645 7.46447C24.5268 8.40215 24 9.67392 24 11C24 11.2652 23.8946 11.5196 23.7071 11.7071C23.5196 11.8946 23.2652 12 23 12C22.7348 12 22.4804 11.8946 22.2929 11.7071C22.1054 11.5196 22 11.2652 22 11C22 9.61553 22.4105 8.26216 23.1797 7.11101C23.9489 5.95987 25.0421 5.06266 26.3212 4.53285C27.6003 4.00303 29.0078 3.86441 30.3656 4.13451C31.7235 4.4046 32.9708 5.07129 33.9497 6.05026C34.9287 7.02922 35.5954 8.2765 35.8655 9.63437C36.1356 10.9922 35.997 12.3997 35.4672 13.6788C34.9373 14.9579 34.0401 16.0511 32.889 16.8203C31.7378 17.5895 30.3845 18 29 18H5C4.73478 18 4.48043 17.8946 4.29289 17.7071C4.10536 17.5196 4 17.2652 4 17C4 16.7348 4.10536 16.4804 4.29289 16.2929C4.48043 16.1054 4.73478 16 5 16H29C30.3261 16 31.5979 15.4732 32.5355 14.5355C33.4732 13.5979 34 12.3261 34 11C34 9.67392 33.4732 8.40215 32.5355 7.46447C31.5979 6.52679 30.3261 6 29 6ZM15 8C14.4696 8 13.9609 8.21072 13.5858 8.58579C13.2107 8.96086 13 9.46957 13 10C13 10.2652 12.8946 10.5196 12.7071 10.7071C12.5196 10.8946 12.2652 11 12 11C11.7348 11 11.4804 10.8946 11.2929 10.7071C11.1054 10.5196 11 10.2652 11 10C11 9.20888 11.2346 8.43552 11.6741 7.77772C12.1136 7.11993 12.7384 6.60724 13.4693 6.30449C14.2002 6.00173 15.0044 5.92252 15.7804 6.07686C16.5563 6.2312 17.269 6.61217 17.8284 7.17158C18.3878 7.73099 18.7688 8.44372 18.9231 9.21964C19.0775 9.99557 18.9983 10.7998 18.6955 11.5307C18.3928 12.2616 17.8801 12.8864 17.2223 13.3259C16.5645 13.7654 15.7911 14 15 14H5C4.73478 14 4.48043 13.8946 4.29289 13.7071C4.10536 13.5196 4 13.2652 4 13C4 12.7348 4.10536 12.4804 4.29289 12.2929C4.48043 12.1054 4.73478 12 5 12H15C15.5304 12 16.0391 11.7893 16.4142 11.4142C16.7893 11.0391 17 10.5304 17 10C17 9.46957 16.7893 8.96086 16.4142 8.58579C16.0391 8.21072 15.5304 8 15 8ZM4 21C4 20.7348 4.10536 20.4804 4.29289 20.2929C4.48043 20.1054 4.73478 20 5 20H25.084C26.2707 20 27.4307 20.3519 28.4174 21.0112C29.4041 21.6705 30.1732 22.6075 30.6273 23.7039C31.0814 24.8003 31.2002 26.0067 30.9687 27.1705C30.7372 28.3344 30.1658 29.4035 29.3266 30.2426C28.4875 31.0818 27.4184 31.6532 26.2545 31.8847C25.0907 32.1162 23.8843 31.9974 22.7879 31.5433C21.6915 31.0892 20.7545 30.3201 20.0952 29.3334C19.4359 28.3467 19.084 27.1867 19.084 26C19.084 25.7348 19.1894 25.4804 19.3769 25.2929C19.5644 25.1054 19.8188 25 20.084 25C20.3492 25 20.6036 25.1054 20.7911 25.2929C20.9786 25.4804 21.084 25.7348 21.084 26C21.084 26.7911 21.3186 27.5645 21.7581 28.2223C22.1976 28.8801 22.8224 29.3928 23.5533 29.6955C24.2842 29.9983 25.0884 30.0775 25.8644 29.9231C26.6403 29.7688 27.353 29.3878 27.9124 28.8284C28.4718 28.269 28.8528 27.5563 29.0071 26.7804C29.1615 26.0044 29.0823 25.2002 28.7795 24.4693C28.4768 23.7384 27.9641 23.1137 27.3063 22.6741C26.6485 22.2346 25.8751 22 25.084 22H5C4.73478 22 4.48043 21.8946 4.29289 21.7071C4.10536 21.5196 4 21.2652 4 21Z" fill="white"/>
</g>
<defs>
<filter id="filter0_f_1417_22341" x="0" y="-2" width="40" height="40" filterUnits="userSpaceOnUse" color-interpolation-filters="sRGB">
<feFlood flood-opacity="0" result="BackgroundImageFix"/>
<feBlend mode="normal" in="SourceGraphic" in2="BackgroundImageFix" result="shape"/>
<feGaussianBlur stdDeviation="2" result="effect1_foregroundBlur_1417_22341"/>
</filter>
<filter id="filter1_f_1417_22341" x="2" y="0" width="36" height="36" filterUnits="userSpaceOnUse" color-interpolation-filters="sRGB">
<feFlood flood-opacity="0" result="BackgroundImageFix"/>
<feBlend mode="normal" in="SourceGraphic" in2="BackgroundImageFix" result="shape"/>
<feGaussianBlur stdDeviation="1" result="effect1_foregroundBlur_1417_22341"/>
</filter>
<clipPath id="clip0_1417_22341">
<rect width="32" height="32" fill="white" transform="translate(4 2)"/>
</clipPath>
<clipPath id="clip1_1417_22341">
<rect width="32" height="32" fill="white" transform="translate(4 2)"/>
</clipPath>
<clipPath id="clip2_1417_22341">
<rect width="32" height="32" fill="white" transform="translate(4 2)"/>
</clipPath>
</defs>
</svg>
