<svg width="16" height="16" viewBox="0 0 16 16" fill="none" xmlns="http://www.w3.org/2000/svg">
<rect width="16" height="16" fill="#181A1E"/>
<g clip-path="url(#clip0_1421_7534)">
<path d="M7.61759 9.2492C7.40385 9.2492 7.20607 9.15258 7.07953 8.98375L5.81095 7.28429H3.79377C3.70126 7.28429 3.62576 7.3565 3.62576 7.44498C3.62576 7.53346 3.70126 7.60567 3.79377 7.60567H5.14104C5.60572 7.60567 5.98321 7.96672 5.98321 8.41116C5.98321 8.8556 5.60572 9.21767 5.1421 9.21767H1.94141L2.61557 8.57287H5.1421C5.23461 8.57287 5.31011 8.50066 5.31011 8.41218C5.31011 8.3237 5.23461 8.25149 5.1421 8.25149H3.79377C3.32908 8.25149 2.95159 7.89044 2.95159 7.44599C2.95159 7.00155 3.32908 6.6405 3.79377 6.6405H6.15654L7.61652 8.59524L8.82343 6.6405H10.0261V7.2853H9.20836L8.20562 8.91052C8.09929 9.10478 7.90044 9.22987 7.67075 9.24716C7.65268 9.24818 7.6346 9.2492 7.61759 9.2492Z" fill="white"/>
<path d="M10.7001 7.2843H10.0259V9.21769H10.7001V7.2843Z" fill="white"/>
<path d="M13.3947 7.28429H10.7002V6.6405H14.0678L13.3947 7.28429Z" fill="white"/>
<path d="M12.3846 6.96191H11.7104V9.2177H12.3846V6.96191Z" fill="white"/>
</g>
<defs>
<clipPath id="clip0_1421_7534">
<rect width="14.6286" height="4" fill="white" transform="translate(0.685547 5.94287)"/>
</clipPath>
</defs>
</svg>
