<svg width="274" height="496" viewBox="0 0 274 496" fill="none" xmlns="http://www.w3.org/2000/svg">
<circle cx="140" cy="134" r="8" fill="white"/>
<path d="M137 8H1V131.189M137 8H273V131.189M137 8V495M137 495H273V376.667M137 495H1V376.667M1 376.667H273M1 376.667V254.377M273 376.667V254.377M1 254.377H273M1 254.377V131.189M273 254.377V131.189M1 131.189H273" stroke="white"/>
<circle cx="17" cy="16" r="8" fill="white"/>
<circle cx="17" cy="16" r="16" fill="white" fill-opacity="0.5"/>
<circle cx="140" cy="134" r="16" fill="white" fill-opacity="0.5"/>
<circle cx="49" cy="311" r="8" fill="white"/>
<circle cx="49" cy="311" r="16" fill="white" fill-opacity="0.5"/>
<circle cx="233" cy="439" r="8" fill="white"/>
<circle cx="233" cy="439" r="16" fill="white" fill-opacity="0.5"/>
</svg>
